# xmcd CD database file
#
# Track frame offsets:
#	150
#	13261
#	23618
#	34748
#	44768
#	52988
#	66060
#	76290
#	88425
#	101948
#	112373
#	122528
#	133890
#	146182
#	156000
#	174975
#	187073
#	198945
#	213848
#	225589
#	240870
#	254917
#	263712
#	278011
#	292032
#
# Disc length: 4072 seconds
#
# Revision: 0
# Processed by: cddbd v1.5.2PL0 Copyright (c) Steve Scherf et al.
# Submitted via: ACXtractor (MTCDDB.DLL V2003.12.21)
#
DISCID=780fe619
DTITLE=Slim Whitman - Valley of Tears
DYEAR=1997
DGENRE=Country
TTITLE0=One Dream
TTITLE1=You Bring out the Best in Me
TTITLE2=Seven Roses
TTITLE3=If I Had My Life to Live Over
TTITLE4=If I Lost You
TTITLE5=Jerry
TTITLE6=There's a Time for Love
TTITLE7=Nothing New
TTITLE8=I Think I'll go somewhere and Cry Myself to Sleep
TTITLE9=Promises
TTITLE10=Afraid
TTITLE11=What's the world a Comin' To
TTITLE12=Keep It a Secret
TTITLE13=Valley of Tears
TTITLE14=Old Shep
TTITLE15=Lorina
TTITLE16=The Girl with the Gardnias
TTITLE17=It's Now or Never
TTITLE18=I'm Sending You a Big Bouquet of Roses
TTITLE19=Try a Little Tenderness
TTITLE20=Are You Lonesome Tonight
TTITLE21=Wooden Heart
TTITLE22=Good Luck God Bless You
TTITLE23=What a Fool I Was
TTITLE24=Till I Waltz Again with You
EXTD=ID3G:   2 YEAR: 1997
EXTT0=
EXTT1=
EXTT2=
EXTT3=
EXTT4=
EXTT5=
EXTT6=
EXTT7=
EXTT8=
EXTT9=
EXTT10=
EXTT11=
EXTT12=
EXTT13=
EXTT14=
EXTT15=
EXTT16=
EXTT17=
EXTT18=
EXTT19=
EXTT20=
EXTT21=
EXTT22=
EXTT23=
EXTT24=
PLAYORDER=
